<?xml version="1.0" standalone="no"?>
<!DOCTYPE svg PUBLIC "-//W3C//DTD SVG 20010904//EN"
 "http://www.w3.org/TR/2001/REC-SVG-20010904/DTD/svg10.dtd">
<svg version="1.0" xmlns="http://www.w3.org/2000/svg"
 width="200.000000pt" height="200.000000pt" viewBox="0 0 200.000000 200.000000"
 preserveAspectRatio="xMidYMid meet">
<metadata>
Created by potrace 1.10, written by Peter Selinger 2001-2011
</metadata>
<g transform="translate(0.000000,200.000000) scale(0.100000,-0.100000)"
fill="#000000" stroke="none">
<path d="M820 1704 c-341 -62 -543 -157 -730 -344 l-85 -84 81 -7 c157 -12
307 -79 410 -184 290 -294 81 -725 -380 -787 -44 -5 -82 -11 -83 -12 -2 -1
187 -1 420 2 l422 4 3 491 2 492 120 0 120 0 2 -492 3 -491 422 -4 c233 -3
422 -3 420 -2 -1 1 -39 7 -83 12 -389 52 -613 373 -468 669 77 159 287 286
498 302 l81 7 -85 84 c-158 158 -343 258 -590 317 -89 21 -134 26 -290 28
-102 2 -196 1 -210 -1z m452 -54 c130 -27 200 -51 324 -111 138 -66 316 -201
300 -227 -3 -5 -26 -12 -50 -15 -63 -9 -177 -50 -244 -89 -70 -40 -169 -137
-205 -202 -45 -81 -60 -147 -55 -250 3 -72 10 -103 31 -151 40 -85 100 -158
178 -217 38 -28 66 -54 64 -59 -3 -4 -106 -7 -228 -6 l-222 2 -5 471 c-5 446
-6 473 -24 493 -17 19 -30 21 -136 21 -106 0 -119 -2 -136 -21 -18 -20 -19
-47 -24 -493 l-5 -471 -220 -3 c-121 -1 -226 0 -234 3 -10 4 3 17 40 42 83 56
155 137 197 222 36 73 37 77 37 190 0 109 -2 120 -31 181 -82 172 -244 291
-455 334 -34 7 -64 17 -66 23 -4 12 86 92 166 146 154 106 375 184 579 206
116 13 311 4 424 -19z"/>
<path d="M918 1595 c-118 -80 -34 -277 107 -251 94 18 142 128 94 217 -32 60
-137 78 -201 34z m132 0 c64 -33 90 -113 56 -173 -59 -107 -226 -64 -228 58 0
47 21 84 65 110 38 24 68 25 107 5z"/>
<path d="M10 781 l0 -301 48 6 c164 18 291 93 341 199 83 177 -71 356 -336
390 l-53 7 0 -301z m147 244 c179 -53 272 -190 217 -321 -36 -86 -169 -172
-275 -177 l-54 -2 -3 245 c-1 134 0 250 3 257 6 17 50 16 112 -2z"/>
<path d="M1873 1065 c-122 -27 -234 -104 -274 -190 -42 -89 -15 -199 66 -274
72 -67 156 -101 278 -115 l47 -6 0 300 0 300 -27 -1 c-16 0 -56 -7 -90 -14z
m82 -285 l0 -255 -25 -3 c-13 -2 -42 2 -65 8 -22 7 -41 12 -43 11 -1 -1 -30
13 -63 30 -195 104 -198 314 -6 415 70 37 125 54 167 51 l35 -2 0 -255z"/>
</g>
</svg>
